HIERARCHY
ROOT Hips
{
 OFFSET 0.000000 0.000000 0.000000
 CHANNELS 6 Xposition Yposition Zposition Yrotation Xrotation Zrotation
 JOINT Chest
 {
  OFFSET 0.000000 9.588913 -0.003946
  CHANNELS 3 Yrotation Xrotation Zrotation
  JOINT Chest2
  {
   OFFSET 0.000000 9.541882 0.008053
   CHANNELS 3 Yrotation Xrotation Zrotation
   JOINT Chest3
   {
    OFFSET 0.000000 9.501360 0.000000
    CHANNELS 3 Yrotation Xrotation Zrotation
    JOINT Chest4
    {
     OFFSET 0.000000 9.491660 0.000000
     CHANNELS 3 Yrotation Xrotation Zrotation
     JOINT Neck
     {
      OFFSET 0.000000 14.331917 0.000000
      CHANNELS 3 Yrotation Xrotation Zrotation
      JOINT Head
      {
       OFFSET 0.000000 8.884799 0.017034
       CHANNELS 3 Yrotation Xrotation Zrotation
       End Site
       {
        OFFSET 0.000000 16.896195 0.008993
       }
      }
     }
     JOINT RightCollar
     {
      OFFSET -2.923010 9.499495 0.000000
      CHANNELS 3 Yrotation Xrotation Zrotation
      JOINT RightShoulder
      {
       OFFSET -13.795216 0.000000 0.000000
       CHANNELS 3 Yrotation Xrotation Zrotation
       JOINT RightElbow
       {
        OFFSET -30.272209 0.000000 0.000000
        CHANNELS 3 Yrotation Xrotation Zrotation
        JOINT RightWrist
        {
         OFFSET -24.478199 0.000000 0.000000
         CHANNELS 3 Yrotation Xrotation Zrotation
         End Site
         {
          OFFSET -18.090752 0.000000 0.000000
         }
        }
       }
      }
     }
     JOINT LeftCollar
     {
      OFFSET 2.923010 9.499495 0.000000
      CHANNELS 3 Yrotation Xrotation Zrotation
      JOINT LeftShoulder
      {
       OFFSET 13.795216 0.000000 0.000000
       CHANNELS 3 Yrotation Xrotation Zrotation
       JOINT LeftElbow
       {
        OFFSET 30.272209 0.000000 0.000000
        CHANNELS 3 Yrotation Xrotation Zrotation
        JOINT LeftWrist
        {
         OFFSET 24.478199 0.000000 0.000000
         CHANNELS 3 Yrotation Xrotation Zrotation
         End Site
         {
          OFFSET 18.090752 0.000000 0.000000
         }
        }
       }
      }
     }
    }
   }
  }
 }
 JOINT RightHip
 {
  OFFSET -7.826875 0.019532 0.001973
  CHANNELS 3 Yrotation Xrotation Zrotation
  JOINT RightKnee
  {
   OFFSET 0.000000 -40.546152 -0.001885
   CHANNELS 3 Yrotation Xrotation Zrotation
   JOINT RightAnkle
   {
    OFFSET 0.000000 -39.417092 -0.003189
    CHANNELS 3 Yrotation Xrotation Zrotation
    JOINT RightToe
    {
     OFFSET 0.000000 -7.579396 17.243563
     CHANNELS 3 Yrotation Xrotation Zrotation
     End Site
     {
      OFFSET 0.000000 -1.500329 6.694466
     }
    }
   }
  }
 }
 JOINT LeftHip
 {
  OFFSET 7.826875 0.019532 0.001973
  CHANNELS 3 Yrotation Xrotation Zrotation
  JOINT LeftKnee
  {
   OFFSET 0.000000 -40.546152 -0.001885
   CHANNELS 3 Yrotation Xrotation Zrotation
   JOINT LeftAnkle
   {
    OFFSET 0.000000 -39.417092 -0.003189
    CHANNELS 3 Yrotation Xrotation Zrotation
    JOINT LeftToe
    {
     OFFSET 0.000000 -7.579396 17.243563
     CHANNELS 3 Yrotation Xrotation Zrotation
     End Site
     {
      OFFSET 0.000000 -1.500329 6.694466
     }
    }
   }
  }
 }
}
MOTION
Frames: 7
Frame Time: 0.008333
-25.212505 88.371490 63.383721 -54.142407 -9.752081 2.961323 1.666097 3.005227 0.011606 0.919367 1.699841 0.170044 1.150123 2.124357 0.216842 0.919367 1.699841 0.170044 1.255611 34.270892 4.575154 0.414725 13.812913 4.913488 -8.115596 1.100569 -1.498082 -9.226803 5.762408 86.452849 7.589630 -0.751459 2.693059 -0.613760 -1.752790 -0.787215 -0.737198 -0.461174 -2.572514 5.757507 5.574078 -84.620704 -3.922674 1.137736 -5.360479 -4.671561 0.307778 4.872002 -3.048134 2.298370 -13.811735 -3.160343 13.902594 -0.677036 -2.794560 -6.830194 6.803634 0.027384 -0.333598 0.034546 4.072085 14.314897 0.099534 8.943616 -1.669267 -0.607113 7.132494 -4.745558 -1.485937 0.039666 0.493673 0.025145
-25.205599 88.368174 63.372427 -54.144699 -9.741769 2.962827 1.673305 3.022413 0.008608 0.923383 1.708301 0.169068 1.155145 2.134933 0.215661 0.923383 1.708301 0.169068 1.269228 34.274112 4.585752 0.427901 13.817953 4.922656 -8.124577 1.099827 -1.489899 -9.208265 5.757300 86.457423 7.590238 -0.764724 2.694440 -0.619512 -1.751243 -0.784536 -0.739785 -0.463116 -2.568915 5.739484 5.519722 -84.635113 -3.841812 1.112014 -5.282498 -4.637160 0.318875 4.856694 -3.054849 2.268979 -13.807282 -3.171800 13.916012 -0.686897 -2.778532 -6.833901 6.794361 0.026512 -0.327155 0.036061 4.094073 14.311546 0.106825 8.948503 -1.695986 -0.615020 7.117955 -4.738498 -1.482039 0.041336 0.502836 0.023911
-25.200258 88.364956 63.362509 -54.149235 -9.738257 2.963848 1.681254 3.040677 0.005923 0.927978 1.717654 0.168303 1.160892 2.146623 0.214751 0.927978 1.717654 0.168303 1.285074 34.283725 4.600302 0.442833 13.832325 4.936009 -8.130655 1.103064 -1.480033 -9.194503 5.752057 86.456971 7.596943 -0.773703 2.699118 -0.625090 -1.747346 -0.777908 -0.742521 -0.462566 -2.561474 5.718151 5.462929 -84.652673 -3.766845 1.079770 -5.209422 -4.605149 0.328221 4.842327 -3.067084 2.244083 -13.804566 -3.177576 13.932963 -0.693768 -2.760732 -6.838214 6.783712 0.025430 -0.322293 0.037143 4.118078 14.313311 0.115791 8.950256 -1.716035 -0.621945 7.105882 -4.735535 -1.479284 0.042605 0.511472 0.022728
-25.196118 88.361944 63.353867 -54.152165 -9.742037 2.965416 1.689030 3.060847 0.003946 0.932714 1.728564 0.167727 1.166816 2.160260 0.214080 0.932714 1.728564 0.167727 1.302359 34.298721 4.617608 0.458872 13.854532 4.952333 -8.136438 1.107282 -1.472043 -9.184445 5.747980 86.452536 7.610184 -0.775857 2.709258 -0.628010 -1.747757 -0.770985 -0.742589 -0.459376 -2.551660 5.686150 5.403454 -84.672652 -3.699281 1.042967 -5.141856 -4.575609 0.336169 4.829826 -3.083861 2.225228 -13.804983 -3.182604 13.953468 -0.698052 -2.741478 -6.843390 6.773180 0.024444 -0.318876 0.036977 4.139548 14.321153 0.123773 8.949370 -1.732263 -0.627685 7.097514 -4.733993 -1.477165 0.043894 0.518859 0.021805
-25.192738 88.359239 63.346445 -54.150970 -9.753242 2.969199 1.696636 3.083406 0.002050 0.937441 1.741278 0.167263 1.172731 2.176151 0.213555 0.937441 1.741278 0.167263 1.319013 34.317913 4.635985 0.474025 13.882812 4.970135 -8.146402 1.111143 -1.466721 -9.177224 5.745961 86.447505 7.631657 -0.770535 2.723298 -0.629289 -1.749208 -0.763618 -0.740125 -0.452144 -2.542978 5.640940 5.338517 -84.691673 -3.637297 1.004127 -5.082617 -4.547525 0.342175 4.819994 -3.101804 2.213527 -13.810138 -3.188071 13.978059 -0.699775 -2.724580 -6.850017 6.763836 0.024083 -0.316882 0.035676 4.156377 14.335471 0.129223 8.945765 -1.746214 -0.633271 7.090402 -4.731607 -1.474512 0.044881 0.524181 0.020804
-25.189974 88.356903 63.339589 -54.149175 -9.770661 2.973751 1.705678 3.107884 0.000906 0.942727 1.755249 0.167434 1.179349 2.193611 0.213832 0.942727 1.755249 0.167434 1.333841 34.340037 4.652841 0.487483 13.915225 4.986686 -8.160542 1.115900 -1.464134 -9.171345 5.746461 86.444859 7.659847 -0.765613 2.738743 -0.626343 -1.748669 -0.758507 -0.740752 -0.440459 -2.539185 5.592174 5.269000 -84.707810 -3.582668 0.967052 -5.031003 -4.523237 0.347530 4.813222 -3.114304 2.209649 -13.815746 -3.191179 14.003631 -0.700896 -2.715015 -6.856360 6.755865 0.024430 -0.316178 0.034330 4.170851 14.352742 0.135273 8.941180 -1.752602 -0.639598 7.082007 -4.731607 -1.471464 0.045311 0.528140 0.019433
-25.187744 88.355008 63.332648 -54.149598 -9.792906 2.977095 1.716208 3.134074 0.001468 0.948646 1.770195 0.168243 1.186761 2.212289 0.214910 0.948646 1.770195 0.168243 1.347906 34.363329 4.667250 0.500630 13.949186 5.000645 -8.176328 1.122772 -1.464130 -9.165041 5.745966 86.445457 7.692327 -0.765711 2.755347 -0.618259 -1.749653 -0.756994 -0.746475 -0.427949 -2.543156 5.549982 5.199920 -84.717326 -3.539847 0.937899 -4.985073 -4.504311 0.353145 4.808416 -3.118657 2.213158 -13.818929 -3.193561 14.027523 -0.701543 -2.710549 -6.860637 6.747972 0.025306 -0.316769 0.033429 4.184624 14.370199 0.142903 8.937996 -1.749155 -0.644631 7.074096 -4.735867 -1.469936 0.045535 0.531441 0.018408
